<svg data-v-fde0c5aa="" xmlns="http://www.w3.org/2000/svg" viewBox="0 0 300 300" class="iconLeft"><!----><defs data-v-fde0c5aa=""><!----></defs><rect data-v-fde0c5aa="" fill="#00242C" x="0" y="0" width="300px" height="300px" class="logo-background-square"></rect><defs data-v-fde0c5aa=""><!----></defs><g data-v-fde0c5aa="" id="48732a3d-6652-49ba-b96b-aff818703857" fill="#FFFFFF" transform="matrix(3.5689284801483154,0,0,3.5689284801483154,95.4454196527991,130.63909572742162)"><path d="M5.18 5.24C5.46 5.24 7.69 4.90 7.69 2.81C7.69 0.35 5.87 0.43 3.92 0.43L0.52 0.43L0.52 0.55C1.13 0.55 1.33 1.50 1.33 2.37L1.33 8.37C1.33 9.32 1.12 10.16 0.52 10.16L0.52 10.29L3.92 10.29C6.34 10.29 8.34 10.23 8.34 7.78C8.34 5.39 6.09 5.24 5.18 5.24ZM3.92 0.67C4.58 0.67 5.74 0.70 5.74 2.79C5.74 4.86 4.68 5.18 3.92 5.18L3.37 5.18L3.37 0.67ZM3.92 10.05L3.37 10.05L3.37 5.42L3.92 5.42C4.86 5.42 6.29 5.49 6.29 7.71C6.29 10.08 5.14 10.05 3.92 10.05ZM11.79 1.62C11.79 1.09 11.35 0.67 10.82 0.67C10.29 0.67 9.87 1.09 9.87 1.62C9.87 2.16 10.29 2.58 10.82 2.58C11.35 2.58 11.79 2.16 11.79 1.62ZM11.83 8.58L11.83 3.70L9.38 4.26L9.38 4.49C9.95 4.80 10.09 5.00 10.09 5.47L10.09 8.58C10.09 9.30 10.07 9.88 9.53 10.05L9.53 10.29L12.40 10.29L12.40 10.05C11.90 9.91 11.83 9.37 11.83 8.58ZM17.18 6.66L15.76 5.78C14.55 5.01 14.94 3.93 15.85 3.93C17.29 3.93 17.74 5.19 17.92 5.68L18.16 5.68L18.16 4.12C18.16 4.12 17.46 3.70 15.85 3.70C14.45 3.70 13.92 4.40 13.92 4.40C13.15 5.40 13.51 6.54 14.87 7.36L16.28 8.22C17.35 8.92 17.18 10.18 16.18 10.18C14.55 10.18 14.10 8.55 13.89 8.01L13.65 8.01L13.65 9.77C13.65 9.77 14.49 10.42 16.18 10.42C17.61 10.42 18.14 9.66 18.14 9.66C18.84 8.65 18.42 7.43 17.18 6.66ZM23.39 6.66L21.98 5.78C20.76 5.01 21.15 3.93 22.06 3.93C23.51 3.93 23.95 5.19 24.14 5.68L24.37 5.68L24.37 4.12C24.37 4.12 23.67 3.70 22.06 3.70C20.66 3.70 20.13 4.40 20.13 4.40C19.36 5.40 19.73 6.54 21.08 7.36L22.50 8.22C23.56 8.92 23.39 10.18 22.40 10.18C20.76 10.18 20.31 8.55 20.10 8.01L19.87 8.01L19.87 9.77C19.87 9.77 20.71 10.42 22.40 10.42C23.83 10.42 24.36 9.66 24.36 9.66C25.06 8.65 24.64 7.43 23.39 6.66ZM32.27 9.00L32.27 3.70L29.86 3.96L29.86 4.20C30.58 4.28 30.52 4.47 30.52 5.32L30.52 8.48C30.23 9.04 29.69 9.39 29.30 9.39C28.49 9.39 28.13 9.02 28.13 8.23L28.13 3.70L25.61 3.96L25.61 4.20C26.42 4.31 26.39 4.44 26.39 5.28L26.39 8.27C26.39 9.95 27.05 10.42 28.15 10.42C29.02 10.42 30.18 9.70 30.52 8.90L30.52 10.14C30.52 10.14 30.53 10.46 30.91 10.40L32.98 10.04L32.98 9.80C32.40 9.73 32.27 9.67 32.27 9.00ZM35.53 6.69C35.53 5.35 36.11 3.93 36.93 3.93C37.70 3.93 38.28 4.93 38.28 6.69ZM37.00 3.70C35.07 3.70 33.73 5.11 33.73 7.08C33.73 8.72 34.99 10.42 36.82 10.42C38.70 10.42 39.52 9.31 39.75 8.58L39.51 8.46C39.16 9.11 38.04 9.39 37.28 9.23C36.34 9.02 35.64 8.30 35.53 6.93L39.98 6.93C39.98 4.75 39.03 3.70 37.00 3.70ZM44.80 6.66L43.39 5.78C42.17 5.01 42.56 3.93 43.47 3.93C44.91 3.93 45.36 5.19 45.54 5.68L45.78 5.68L45.78 4.12C45.78 4.12 45.08 3.70 43.47 3.70C42.07 3.70 41.54 4.40 41.54 4.40C40.77 5.40 41.13 6.54 42.49 7.36L43.90 8.22C44.97 8.92 44.80 10.18 43.81 10.18C42.17 10.18 41.72 8.55 41.51 8.01L41.27 8.01L41.27 9.77C41.27 9.77 42.11 10.42 43.81 10.42C45.23 10.42 45.77 9.66 45.77 9.66C46.47 8.65 46.05 7.43 44.80 6.66Z"></path></g><defs data-v-fde0c5aa=""><!----></defs><g data-v-fde0c5aa="" id="04e504ed-81b2-472c-9214-b3dde2181e2f" stroke="none" fill="#81E291" transform="matrix(0.5942410826683044,0,0,0.5942410826683044,32.43827998610846,120.28809535348495)"><path d="M61.132 22.142l3.152-10.689a3.236 3.236 0 0 0 2.871-3.208A3.247 3.247 0 0 0 63.908 5a3.243 3.243 0 0 0-3.244 3.245c0 1.162.613 2.174 1.532 2.748l-3.12 10.576a37.31 37.31 0 0 0-18.018-.032l-3.095-10.652a3.235 3.235 0 0 0 1.368-2.64 3.245 3.245 0 0 0-6.491 0 3.236 3.236 0 0 0 3.073 3.229l3.088 10.627c-15.217 4.692-26.276 18.865-26.276 35.623C12.725 78.31 29.412 95 49.999 95s37.277-16.69 37.277-37.276c-.001-16.709-10.996-30.847-26.144-35.582zM50.001 92.111c-22.214 0-32.344-22.854-32.344-22.854C7.907 49.72 44.288 62.815 50 71.838c5.168-8.774 40.504-22.721 32.382-2.581 0 0-10.166 22.854-32.381 22.854z"></path><circle cx="39.329" cy="72.182" r="3.246"></circle><circle cx="60.668" cy="72.182" r="3.246"></circle><path d="M49.999 74.317l-7.273 4.306H57.27z"></path><path d="M64.027 78.036a22.38 22.38 0 0 1-13.999 4.931 22.424 22.424 0 0 1-14.016-4.937.76.76 0 1 0-.955 1.184c4.226 3.401 9.543 5.274 14.971 5.274s10.738-1.871 14.953-5.269a.76.76 0 1 0-.954-1.183z"></path></g><!----></svg>