<?xml version="1.0"?>
<svg width="351" height="91" xmlns="http://www.w3.org/2000/svg" xmlns:svg="http://www.w3.org/2000/svg" class="iconLeft">
 <!---->
 <!---->
 <!---->
 <defs>
  <linearGradient gradientTransform="rotate(25)" id="0544c73c-94ee-42d6-8e74-136261505916" x1="0%" x2="100%" y1="0%" y2="0%">
   <stop offset="0%" stop-color="rgb(0, 102, 120)" style="--darkreader-inline-stopcolor:#066c7d;"/>
   <stop offset="100%" stop-color="rgb(79, 168, 255)" style="--darkreader-inline-stopcolor:#0668c8;"/>
  </linearGradient>
 </defs>
 <!---->
 <g class="layer">
  <title>Layer 1</title>
  <g fill="#000000" id="c5e647fd-cc38-420c-9024-f35d723770bc" style="--darkreader-inline-fill:#060606;" transform="matrix(6.116207599639893,0,0,6.116207599639893,85.3770980834961,-3.0423178672790527)">
   <path d="m1.5,12.61l0,-9.66l2.51,0l0,0q0.83,0 1.53,0.24l0,0l0,0q0.69,0.23 1.13,0.76l0,0l0,0q0.43,0.52 0.43,1.33l0,0l0,0q0,0.8 -0.34,1.33l0,0l0,0q-0.33,0.53 -0.95,0.9l0,0l0,0q0.85,0.39 1.31,0.97l0,0l0,0q0.45,0.59 0.45,1.6l0,0l0,0q0,1.36 -0.87,1.94l0,0l0,0q-0.88,0.59 -2.17,0.59l0,0l-3.03,0zm0.89,-5.32l1.57,0l0,0q0.62,0 1.1,-0.2l0,0l0,0q0.48,-0.21 0.75,-0.62l0,0l0,0q0.28,-0.42 0.28,-1.04l0,0l0,0q0,-0.94 -0.56,-1.3l0,0l0,0q-0.55,-0.36 -1.51,-0.36l0,0l-1.63,0l0,3.52zm0,4.47l2.16,0l0,0q2.12,0 2.12,-1.7l0,0l0,0q0,-1.93 -2.08,-1.93l0,0l-2.2,0l0,3.63zm7.17,-7.56l0,-1.25l1.02,0l0,1.25l-1.02,0zm0.09,8.41l0,-6.83l0.85,0l0,6.83l-0.85,0zm5.09,0.13l0,0q-0.6,0 -1.11,-0.22l0,0l0,0q-0.5,-0.22 -0.85,-0.59l0,0l0,0q-0.35,-0.38 -0.5,-0.82l0,0l0.74,-0.41l0,0q0.19,0.61 0.65,0.98l0,0l0,0q0.45,0.36 1.12,0.36l0,0l0,0q0.6,0 1,-0.3l0,0l0,0q0.39,-0.3 0.39,-0.9l0,0l0,0q0,-0.46 -0.24,-0.74l0,0l0,0q-0.23,-0.29 -0.57,-0.45l0,0l0,0q-0.34,-0.16 -0.94,-0.36l0,0l0,0q-0.64,-0.21 -1.02,-0.4l0,0l0,0q-0.38,-0.18 -0.64,-0.53l0,0l0,0q-0.27,-0.34 -0.27,-0.9l0,0l0,0q0,-0.56 0.28,-0.98l0,0l0,0q0.28,-0.42 0.76,-0.63l0,0l0,0q0.47,-0.22 1.03,-0.22l0,0l0,0q0.74,0 1.3,0.36l0,0l0,0q0.56,0.36 0.86,0.98l0,0l-0.62,0.36l0,0q-0.23,-0.49 -0.63,-0.74l0,0l0,0q-0.39,-0.26 -0.93,-0.26l0,0l0,0q-0.58,0 -0.93,0.29l0,0l0,0q-0.35,0.28 -0.35,0.75l0,0l0,0q0,0.36 0.21,0.6l0,0l0,0q0.21,0.23 0.53,0.37l0,0l0,0q0.32,0.14 0.87,0.31l0,0l0,0q0.69,0.22 1.11,0.42l0,0l0,0q0.42,0.21 0.72,0.6l0,0l0,0q0.3,0.39 0.3,1.03l0,0l0,0q0,0.65 -0.32,1.12l0,0l0,0q-0.31,0.46 -0.83,0.69l0,0l0,0q-0.52,0.23 -1.12,0.23l0,0zm5.86,0l0,0q-0.6,0 -1.1,-0.22l0,0l0,0q-0.5,-0.22 -0.85,-0.59l0,0l0,0q-0.35,-0.38 -0.51,-0.82l0,0l0.75,-0.41l0,0q0.19,0.61 0.64,0.98l0,0l0,0q0.45,0.36 1.12,0.36l0,0l0,0q0.61,0 1,-0.3l0,0l0,0q0.4,-0.3 0.4,-0.9l0,0l0,0q0,-0.46 -0.24,-0.74l0,0l0,0q-0.24,-0.29 -0.58,-0.45l0,0l0,0q-0.34,-0.16 -0.93,-0.36l0,0l0,0q-0.64,-0.21 -1.02,-0.4l0,0l0,0q-0.39,-0.18 -0.65,-0.53l0,0l0,0q-0.26,-0.34 -0.26,-0.9l0,0l0,0q0,-0.56 0.28,-0.98l0,0l0,0q0.28,-0.42 0.75,-0.63l0,0l0,0q0.47,-0.22 1.04,-0.22l0,0l0,0q0.74,0 1.29,0.36l0,0l0,0q0.56,0.36 0.86,0.98l0,0l-0.61,0.36l0,0q-0.23,-0.49 -0.63,-0.74l0,0l0,0q-0.4,-0.26 -0.94,-0.26l0,0l0,0q-0.58,0 -0.93,0.29l0,0l0,0q-0.35,0.28 -0.35,0.75l0,0l0,0q0,0.36 0.22,0.6l0,0l0,0q0.21,0.23 0.53,0.37l0,0l0,0q0.31,0.14 0.86,0.31l0,0l0,0q0.69,0.22 1.11,0.42l0,0l0,0q0.42,0.21 0.72,0.6l0,0l0,0q0.3,0.39 0.3,1.03l0,0l0,0q0,0.65 -0.31,1.12l0,0l0,0q-0.32,0.46 -0.84,0.69l0,0l0,0q-0.51,0.23 -1.12,0.23l0,0zm6.16,0.02l0,0q-1.17,0 -1.74,-0.81l0,0l0,0q-0.56,-0.81 -0.56,-2.12l0,0l0,-4.05l0.85,0l0,4.13l0,0q0,0.88 0.33,1.51l0,0l0,0q0.34,0.64 1.16,0.64l0,0l0,0q0.57,0 1.07,-0.33l0,0l0,0q0.49,-0.33 0.79,-0.87l0,0l0,0q0.29,-0.54 0.29,-1.13l0,0l0,-3.95l0.84,0l0,6.83l-0.84,0l0,-1.25l0,0q-0.12,0.32 -0.43,0.64l0,0l0,0q-0.31,0.33 -0.76,0.54l0,0l0,0q-0.46,0.22 -1,0.22l0,0zm7.89,-0.07l0,0q-0.97,0 -1.64,-0.47l0,0l0,0q-0.68,-0.46 -1.01,-1.24l0,0l0,0q-0.34,-0.79 -0.34,-1.75l0,0l0,0q0,-0.95 0.34,-1.76l0,0l0,0q0.33,-0.8 0.97,-1.29l0,0l0,0q0.65,-0.49 1.57,-0.49l0,0l0,0q1.02,0 1.65,0.47l0,0l0,0q0.64,0.48 0.91,1.22l0,0l0,0q0.27,0.75 0.27,1.62l0,0l0,0q0,0.24 -0.03,0.48l0,0l-4.78,0l0,0q-0.02,0.67 0.21,1.23l0,0l0,0q0.24,0.56 0.72,0.9l0,0l0,0q0.47,0.34 1.15,0.34l0,0l0,0q0.65,0 1.12,-0.16l0,0l0,0q0.47,-0.16 0.86,-0.57l0,0l0.59,0.45l0,0q-0.56,0.54 -1.15,0.78l0,0l0,0q-0.6,0.24 -1.41,0.24l0,0zm-2.09,-3.95l3.99,0l0,0q0,-0.61 -0.19,-1.14l0,0l0,0q-0.2,-0.53 -0.65,-0.87l0,0l0,0q-0.45,-0.34 -1.17,-0.34l0,0l0,0q-0.63,0 -1.07,0.32l0,0l0,0q-0.45,0.32 -0.67,0.86l0,0l0,0q-0.22,0.53 -0.24,1.17l0,0zm8.5,4l0,0q-0.6,0 -1.11,-0.22l0,0l0,0q-0.5,-0.22 -0.85,-0.59l0,0l0,0q-0.35,-0.38 -0.5,-0.82l0,0l0.74,-0.41l0,0q0.19,0.61 0.64,0.98l0,0l0,0q0.45,0.36 1.12,0.36l0,0l0,0q0.61,0 1.01,-0.3l0,0l0,0q0.39,-0.3 0.39,-0.9l0,0l0,0q0,-0.46 -0.24,-0.74l0,0l0,0q-0.23,-0.29 -0.57,-0.45l0,0l0,0q-0.35,-0.16 -0.94,-0.36l0,0l0,0q-0.64,-0.21 -1.02,-0.4l0,0l0,0q-0.38,-0.18 -0.65,-0.53l0,0l0,0q-0.26,-0.34 -0.26,-0.9l0,0l0,0q0,-0.56 0.28,-0.98l0,0l0,0q0.28,-0.42 0.75,-0.63l0,0l0,0q0.48,-0.22 1.04,-0.22l0,0l0,0q0.74,0 1.3,0.36l0,0l0,0q0.56,0.36 0.86,0.98l0,0l-0.62,0.36l0,0q-0.23,-0.49 -0.63,-0.74l0,0l0,0q-0.39,-0.26 -0.93,-0.26l0,0l0,0q-0.59,0 -0.93,0.29l0,0l0,0q-0.35,0.28 -0.35,0.75l0,0l0,0q0,0.36 0.21,0.6l0,0l0,0q0.21,0.23 0.53,0.37l0,0l0,0q0.32,0.14 0.86,0.31l0,0l0,0q0.69,0.22 1.11,0.42l0,0l0,0q0.42,0.21 0.73,0.6l0,0l0,0q0.3,0.39 0.3,1.03l0,0l0,0q0,0.65 -0.32,1.12l0,0l0,0q-0.31,0.46 -0.83,0.69l0,0l0,0q-0.52,0.23 -1.12,0.23l0,0z" id="svg_1" stroke="#63ace5" stroke-width="0.05" style="--darkreader-inline-stroke:#84deff;"/>
  </g>
  <g fill="url(#0544c73c-94ee-42d6-8e74-136261505916)" id="e71e00c5-8509-41d5-95db-010ae40b5aba" transform="matrix(1.0000054836273193,0,0,1.0000054836273193,-12.275772094726562,-4.000522136688232)">
   <path d="m61.132,22.142l3.152,-10.689a3.236,3.236 0 0 0 2.871,-3.208a3.247,3.247 0 0 0 -3.247,-3.245a3.243,3.243 0 0 0 -3.244,3.245c0,1.162 0.613,2.174 1.532,2.748l-3.12,10.576a37.31,37.31 0 0 0 -18.018,-0.032l-3.095,-10.652a3.235,3.235 0 0 0 1.368,-2.64a3.245,3.245 0 0 0 -6.491,0a3.236,3.236 0 0 0 3.073,3.229l3.088,10.627c-15.217,4.692 -26.276,18.865 -26.276,35.623c0,20.586 16.687,37.276 37.274,37.276s37.277,-16.69 37.277,-37.276c-0.001,-16.709 -10.996,-30.847 -26.144,-35.582zm-11.131,69.969c-22.214,0 -32.344,-22.854 -32.344,-22.854c-9.75,-19.537 26.631,-6.442 32.343,2.581c5.168,-8.774 40.504,-22.721 32.382,-2.581c0,0 -10.166,22.854 -32.381,22.854z" id="svg_2"/>
   <circle cx="39.329" cy="72.182" id="svg_3" r="3.246"/>
   <circle cx="60.668" cy="72.182" id="svg_4" r="3.246"/>
   <path d="m49.999,74.317l-7.273,4.306l14.544,0l-7.271,-4.306z" id="svg_5"/>
   <path d="m64.027,78.036a22.38,22.38 0 0 1 -13.999,4.931a22.424,22.424 0 0 1 -14.016,-4.937a0.76,0.76 0 1 0 -0.955,1.184c4.226,3.401 9.543,5.274 14.971,5.274s10.738,-1.871 14.953,-5.269a0.76,0.76 0 1 0 -0.954,-1.183z" id="svg_6"/>
  </g>
 </g>
</svg>