<svg data-v-423bf9ae="" xmlns="http://www.w3.org/2000/svg" viewBox="0 0 351 91" class="iconLeft"><!----><!----><!----><g data-v-423bf9ae="" id="c5e647fd-cc38-420c-9024-f35d723770bc" fill="#000000" transform="matrix(6.116207599639893,0,0,6.116207599639893,85.3770980834961,-3.0423178672790527)"><path d="M1.50 12.61L1.50 2.95L4.01 2.95L4.01 2.95Q4.84 2.95 5.54 3.19L5.54 3.19L5.54 3.19Q6.23 3.42 6.67 3.95L6.67 3.95L6.67 3.95Q7.10 4.47 7.10 5.28L7.10 5.28L7.10 5.28Q7.10 6.08 6.76 6.61L6.76 6.61L6.76 6.61Q6.43 7.14 5.81 7.51L5.81 7.51L5.81 7.51Q6.66 7.90 7.12 8.48L7.12 8.48L7.12 8.48Q7.57 9.07 7.57 10.08L7.57 10.08L7.57 10.08Q7.57 11.44 6.70 12.02L6.70 12.02L6.70 12.02Q5.82 12.61 4.53 12.61L4.53 12.61L1.50 12.61ZM2.39 7.29L3.96 7.29L3.96 7.29Q4.58 7.29 5.06 7.09L5.06 7.09L5.06 7.09Q5.54 6.88 5.81 6.47L5.81 6.47L5.81 6.47Q6.09 6.05 6.09 5.43L6.09 5.43L6.09 5.43Q6.09 4.49 5.53 4.13L5.53 4.13L5.53 4.13Q4.98 3.77 4.02 3.77L4.02 3.77L2.39 3.77L2.39 7.29ZM2.39 11.76L4.55 11.76L4.55 11.76Q6.67 11.76 6.67 10.06L6.67 10.06L6.67 10.06Q6.67 8.13 4.59 8.13L4.59 8.13L2.39 8.13L2.39 11.76ZM9.56 4.20L9.56 2.95L10.58 2.95L10.58 4.20L9.56 4.20ZM9.65 12.61L9.65 5.78L10.50 5.78L10.50 12.61L9.65 12.61ZM14.74 12.74L14.74 12.74Q14.14 12.74 13.63 12.52L13.63 12.52L13.63 12.52Q13.13 12.30 12.78 11.93L12.78 11.93L12.78 11.93Q12.43 11.55 12.28 11.11L12.28 11.11L13.02 10.70L13.02 10.70Q13.21 11.31 13.67 11.68L13.67 11.68L13.67 11.68Q14.12 12.04 14.79 12.04L14.79 12.04L14.79 12.04Q15.39 12.04 15.79 11.74L15.79 11.74L15.79 11.74Q16.18 11.44 16.18 10.84L16.18 10.84L16.18 10.84Q16.18 10.38 15.94 10.10L15.94 10.10L15.94 10.10Q15.71 9.81 15.37 9.65L15.37 9.65L15.37 9.65Q15.03 9.49 14.43 9.29L14.43 9.29L14.43 9.29Q13.79 9.08 13.41 8.89L13.41 8.89L13.41 8.89Q13.03 8.71 12.77 8.36L12.77 8.36L12.77 8.36Q12.50 8.02 12.50 7.46L12.50 7.46L12.50 7.46Q12.50 6.90 12.78 6.48L12.78 6.48L12.78 6.48Q13.06 6.06 13.54 5.85L13.54 5.85L13.54 5.85Q14.01 5.63 14.57 5.63L14.57 5.63L14.57 5.63Q15.31 5.63 15.87 5.99L15.87 5.99L15.87 5.99Q16.43 6.35 16.73 6.97L16.73 6.97L16.11 7.33L16.11 7.33Q15.88 6.84 15.48 6.59L15.48 6.59L15.48 6.59Q15.09 6.33 14.55 6.33L14.55 6.33L14.55 6.33Q13.97 6.33 13.62 6.62L13.62 6.62L13.62 6.62Q13.27 6.90 13.27 7.37L13.27 7.37L13.27 7.37Q13.27 7.73 13.48 7.97L13.48 7.97L13.48 7.97Q13.69 8.20 14.01 8.34L14.01 8.34L14.01 8.34Q14.33 8.48 14.88 8.65L14.88 8.65L14.88 8.65Q15.57 8.87 15.99 9.07L15.99 9.07L15.99 9.07Q16.41 9.28 16.71 9.67L16.71 9.67L16.71 9.67Q17.01 10.06 17.01 10.70L17.01 10.70L17.01 10.70Q17.01 11.35 16.69 11.82L16.69 11.82L16.69 11.82Q16.38 12.28 15.86 12.51L15.86 12.51L15.86 12.51Q15.34 12.74 14.74 12.74L14.74 12.74ZM20.60 12.74L20.60 12.74Q20.00 12.74 19.50 12.52L19.50 12.52L19.50 12.52Q19.00 12.30 18.65 11.93L18.65 11.93L18.65 11.93Q18.30 11.55 18.14 11.11L18.14 11.11L18.89 10.70L18.89 10.70Q19.08 11.31 19.53 11.68L19.53 11.68L19.53 11.68Q19.98 12.04 20.65 12.04L20.65 12.04L20.65 12.04Q21.26 12.04 21.65 11.74L21.65 11.74L21.65 11.74Q22.05 11.44 22.05 10.84L22.05 10.84L22.05 10.84Q22.05 10.38 21.81 10.10L21.81 10.10L21.81 10.10Q21.57 9.81 21.23 9.65L21.23 9.65L21.23 9.65Q20.89 9.49 20.30 9.29L20.30 9.29L20.30 9.29Q19.66 9.08 19.28 8.89L19.28 8.89L19.28 8.89Q18.89 8.71 18.63 8.36L18.63 8.36L18.63 8.36Q18.37 8.02 18.37 7.46L18.37 7.46L18.37 7.46Q18.37 6.90 18.65 6.48L18.65 6.48L18.65 6.48Q18.93 6.06 19.40 5.85L19.40 5.85L19.40 5.85Q19.87 5.63 20.44 5.63L20.44 5.63L20.44 5.63Q21.18 5.63 21.73 5.99L21.73 5.99L21.73 5.99Q22.29 6.35 22.59 6.97L22.59 6.97L21.98 7.33L21.98 7.33Q21.75 6.84 21.35 6.59L21.35 6.59L21.35 6.59Q20.95 6.33 20.41 6.33L20.41 6.33L20.41 6.33Q19.83 6.33 19.48 6.62L19.48 6.62L19.48 6.62Q19.13 6.90 19.13 7.37L19.13 7.37L19.13 7.37Q19.13 7.73 19.35 7.97L19.35 7.97L19.35 7.97Q19.56 8.20 19.88 8.34L19.88 8.34L19.88 8.34Q20.19 8.48 20.74 8.65L20.74 8.65L20.74 8.65Q21.43 8.87 21.85 9.07L21.85 9.07L21.85 9.07Q22.27 9.28 22.57 9.67L22.57 9.67L22.57 9.67Q22.87 10.06 22.87 10.70L22.87 10.70L22.87 10.70Q22.87 11.35 22.56 11.82L22.56 11.82L22.56 11.82Q22.24 12.28 21.72 12.51L21.72 12.51L21.72 12.51Q21.21 12.74 20.60 12.74L20.60 12.74ZM26.76 12.76L26.76 12.76Q25.59 12.76 25.02 11.95L25.02 11.95L25.02 11.95Q24.46 11.14 24.46 9.83L24.46 9.83L24.46 5.78L25.31 5.78L25.31 9.91L25.31 9.91Q25.31 10.79 25.64 11.42L25.64 11.42L25.64 11.42Q25.98 12.06 26.80 12.06L26.80 12.06L26.80 12.06Q27.37 12.06 27.87 11.73L27.87 11.73L27.87 11.73Q28.36 11.40 28.66 10.86L28.66 10.86L28.66 10.86Q28.95 10.32 28.95 9.73L28.95 9.73L28.95 5.78L29.79 5.78L29.79 12.61L28.95 12.61L28.95 11.36L28.95 11.36Q28.83 11.68 28.52 12.00L28.52 12.00L28.52 12.00Q28.21 12.33 27.76 12.54L27.76 12.54L27.76 12.54Q27.30 12.76 26.76 12.76L26.76 12.76ZM34.65 12.69L34.65 12.69Q33.68 12.69 33.01 12.22L33.01 12.22L33.01 12.22Q32.33 11.76 32.00 10.98L32.00 10.98L32.00 10.98Q31.66 10.19 31.66 9.23L31.66 9.23L31.66 9.23Q31.66 8.28 32.00 7.47L32.00 7.47L32.00 7.47Q32.33 6.67 32.97 6.18L32.97 6.18L32.97 6.18Q33.62 5.69 34.54 5.69L34.54 5.69L34.54 5.69Q35.56 5.69 36.19 6.16L36.19 6.16L36.19 6.16Q36.83 6.64 37.10 7.38L37.10 7.38L37.10 7.38Q37.37 8.13 37.37 9.00L37.37 9.00L37.37 9.00Q37.37 9.24 37.34 9.48L37.34 9.48L32.56 9.48L32.56 9.48Q32.54 10.15 32.77 10.71L32.77 10.71L32.77 10.71Q33.01 11.27 33.49 11.61L33.49 11.61L33.49 11.61Q33.96 11.95 34.64 11.95L34.64 11.95L34.64 11.95Q35.29 11.95 35.76 11.79L35.76 11.79L35.76 11.79Q36.23 11.63 36.62 11.22L36.62 11.22L37.21 11.67L37.21 11.67Q36.65 12.21 36.06 12.45L36.06 12.45L36.06 12.45Q35.46 12.69 34.65 12.69L34.65 12.69ZM32.56 8.74L36.55 8.74L36.55 8.74Q36.55 8.13 36.36 7.60L36.36 7.60L36.36 7.60Q36.16 7.07 35.71 6.73L35.71 6.73L35.71 6.73Q35.26 6.39 34.54 6.39L34.54 6.39L34.54 6.39Q33.91 6.39 33.47 6.71L33.47 6.71L33.47 6.71Q33.02 7.03 32.80 7.57L32.80 7.57L32.80 7.57Q32.58 8.10 32.56 8.74L32.56 8.74ZM41.06 12.74L41.06 12.74Q40.46 12.74 39.95 12.52L39.95 12.52L39.95 12.52Q39.45 12.30 39.10 11.93L39.10 11.93L39.10 11.93Q38.75 11.55 38.60 11.11L38.60 11.11L39.34 10.70L39.34 10.70Q39.53 11.31 39.98 11.68L39.98 11.68L39.98 11.68Q40.43 12.04 41.10 12.04L41.10 12.04L41.10 12.04Q41.71 12.04 42.11 11.74L42.11 11.74L42.11 11.74Q42.50 11.44 42.50 10.84L42.50 10.84L42.50 10.84Q42.50 10.38 42.26 10.10L42.26 10.10L42.26 10.10Q42.03 9.81 41.69 9.65L41.69 9.65L41.69 9.65Q41.34 9.49 40.75 9.29L40.75 9.29L40.75 9.29Q40.11 9.08 39.73 8.89L39.73 8.89L39.73 8.89Q39.35 8.71 39.08 8.36L39.08 8.36L39.08 8.36Q38.82 8.02 38.82 7.46L38.82 7.46L38.82 7.46Q38.82 6.90 39.10 6.48L39.10 6.48L39.10 6.48Q39.38 6.06 39.85 5.85L39.85 5.85L39.85 5.85Q40.33 5.63 40.89 5.63L40.89 5.63L40.89 5.63Q41.63 5.63 42.19 5.99L42.19 5.99L42.19 5.99Q42.75 6.35 43.05 6.97L43.05 6.97L42.43 7.33L42.43 7.33Q42.20 6.84 41.80 6.59L41.80 6.59L41.80 6.59Q41.41 6.33 40.87 6.33L40.87 6.33L40.87 6.33Q40.28 6.33 39.94 6.62L39.94 6.62L39.94 6.62Q39.59 6.90 39.59 7.37L39.59 7.37L39.59 7.37Q39.59 7.73 39.80 7.97L39.80 7.97L39.80 7.97Q40.01 8.20 40.33 8.34L40.33 8.34L40.33 8.34Q40.65 8.48 41.19 8.65L41.19 8.65L41.19 8.65Q41.88 8.87 42.30 9.07L42.30 9.07L42.30 9.07Q42.72 9.28 43.03 9.67L43.03 9.67L43.03 9.67Q43.33 10.06 43.33 10.70L43.33 10.70L43.33 10.70Q43.33 11.35 43.01 11.82L43.01 11.82L43.01 11.82Q42.70 12.28 42.18 12.51L42.18 12.51L42.18 12.51Q41.66 12.74 41.06 12.74L41.06 12.74Z"></path></g><defs data-v-423bf9ae=""><linearGradient data-v-423bf9ae="" gradientTransform="rotate(25)" id="0544c73c-94ee-42d6-8e74-136261505916" x1="0%" y1="0%" x2="100%" y2="0%"><stop data-v-423bf9ae="" offset="0%" style="stop-color: rgb(0, 102, 120); stop-opacity: 1;"></stop><stop data-v-423bf9ae="" offset="100%" style="stop-color: rgb(79, 168, 255); stop-opacity: 1;"></stop></linearGradient></defs><g data-v-423bf9ae="" id="e71e00c5-8509-41d5-95db-010ae40b5aba" transform="matrix(1.0000054836273193,0,0,1.0000054836273193,-12.275772094726562,-4.000522136688232)" stroke="none" fill="url(#0544c73c-94ee-42d6-8e74-136261505916)"><path d="M61.132 22.142l3.152-10.689a3.236 3.236 0 0 0 2.871-3.208A3.247 3.247 0 0 0 63.908 5a3.243 3.243 0 0 0-3.244 3.245c0 1.162.613 2.174 1.532 2.748l-3.12 10.576a37.31 37.31 0 0 0-18.018-.032l-3.095-10.652a3.235 3.235 0 0 0 1.368-2.64 3.245 3.245 0 0 0-6.491 0 3.236 3.236 0 0 0 3.073 3.229l3.088 10.627c-15.217 4.692-26.276 18.865-26.276 35.623C12.725 78.31 29.412 95 49.999 95s37.277-16.69 37.277-37.276c-.001-16.709-10.996-30.847-26.144-35.582zM50.001 92.111c-22.214 0-32.344-22.854-32.344-22.854C7.907 49.72 44.288 62.815 50 71.838c5.168-8.774 40.504-22.721 32.382-2.581 0 0-10.166 22.854-32.381 22.854z"></path><circle cx="39.329" cy="72.182" r="3.246"></circle><circle cx="60.668" cy="72.182" r="3.246"></circle><path d="M49.999 74.317l-7.273 4.306H57.27z"></path><path d="M64.027 78.036a22.38 22.38 0 0 1-13.999 4.931 22.424 22.424 0 0 1-14.016-4.937.76.76 0 1 0-.955 1.184c4.226 3.401 9.543 5.274 14.971 5.274s10.738-1.871 14.953-5.269a.76.76 0 1 0-.954-1.183z"></path></g><!----></svg>